<?xml version="1.0" encoding="UTF-8"?>
<svg width="24" height="24" viewBox="0 0 96 96" version="1.1" xmlns="http://www.w3.org/2000/svg" xmlns:xlink="http://www.w3.org/1999/xlink">
    <title>Combined Shape</title>
    <g id="Multipage" stroke="none" stroke-width="1" fill="none" fill-rule="evenodd">
        <g id="Fortvision-/-logomark-Copy" transform="translate(0.000000, 0.011285)" fill="#A9A6A1">
            <path d="M61.77464,55.1797055 C63.0663805,52.7075163 63.6649871,49.9190411 63.5049381,47.1160918 C63.0175311,38.5619396 55.6694493,32.0024925 47.117161,32.4927078 C45.307728,32.5969692 43.7703142,31.2205697 43.6672253,29.4164401 C43.5647602,27.6156764 44.9419106,26.0721298 46.745219,25.9691032 C58.9054077,25.2853004 69.3393773,34.5956645 70.0319461,46.7447303 C70.2583876,50.7247246 69.4069202,54.6872886 67.5691133,58.2043707 C66.9997241,59.2941489 65.8782868,59.9591849 64.6697813,59.9596039 C64.1468331,59.9596039 63.6295146,59.8340675 63.1572184,59.586979 C61.5577877,58.7511249 60.9391375,56.7781224 61.77464,55.1797055 Z M25.9684761,49.2553105 C25.734581,45.1470509 26.6452021,41.072753 28.6020991,37.4736602 C29.4640496,35.8881795 31.4498939,35.3012137 33.0362742,36.1637226 C34.6216742,37.0258848 35.2076689,39.0089039 34.346221,40.5934602 C32.9705787,43.1234884 32.3302981,45.9902273 32.49518,48.883554 C32.9826686,57.4347431 40.3360772,63.9962404 48.8825678,63.507285 C48.9792386,63.5027166 48.9792386,63.5027166 49.0716288,63.5019205 C50.8001272,63.5019205 52.2340442,64.8522694 52.3328948,66.5832425 C52.43535,68.3842391 51.0582664,69.927837 49.2550217,70.0308601 C48.8294127,70.0548522 48.4063536,70.066909 47.9872745,70.066909 C36.3392542,70.066909 26.6337436,60.9315802 25.9684761,49.2553105 Z M13.6490033,47.9998656 C13.6490033,29.0586942 29.0578549,13.6492233 48.0000896,13.6492233 C66.9423243,13.6492233 82.3511759,29.0586942 82.3511759,47.9998656 C82.3511759,55.1182038 80.1916156,61.95035 76.1070012,67.7530347 C75.0678509,69.2284913 73.0274349,69.5825855 71.5510235,68.5436178 C70.0759723,67.5046695 69.7221929,65.4678632 70.7603289,63.9928588 C74.0667938,59.2957928 75.8138691,53.7672937 75.8138691,47.9998656 C75.8138691,32.6621153 63.335399,20.1831436 48.0000896,20.1831436 C32.6647803,20.1831436 20.1863101,32.6621153 20.1863101,47.9998656 C20.1863101,63.3376159 32.6647803,75.8165875 48.0000896,75.8165875 C49.8957978,75.8165875 51.7885249,75.6252583 53.6251661,75.2479026 C55.3946616,74.8842651 57.1217392,76.0239041 57.4848717,77.7918465 C57.8473547,79.5586141 56.70891,81.2851648 54.9404228,81.6484384 C52.670127,82.1142925 50.3351535,82.3505079 48.0000896,82.3505079 C29.0578549,82.3505079 13.6490033,66.941037 13.6490033,47.9998656 Z M13.5617201,76.7369462 C14.8596307,75.4818947 16.9302017,75.5172991 18.1847129,76.8155865 C26.0711092,84.9749919 36.6561568,89.4660797 48.0000896,89.4660797 C70.8613554,89.4660797 89.4626932,70.8639942 89.4626932,47.9999851 C89.4626932,44.2373041 88.9592924,40.5096318 87.9667183,36.9203653 C87.485896,35.1819064 88.5056379,33.3823861 90.2453596,32.9010628 C91.9864915,32.4192799 93.7868976,33.4397489 94.2680197,35.1792917 C95.4173233,39.3357569 96,43.6493618 96,47.9999851 C96,74.4674153 74.4682807,96 48.0000896,96 C34.8713829,96 22.6091072,90.7972362 13.4830784,81.3550252 C12.2292693,80.057887 12.2646109,77.990828 13.5617201,76.7369462 Z M48.0000299,6.53392034 C43.9509393,6.53392034 39.9514646,7.11552215 36.1117862,8.26258774 C34.3804978,8.77978907 32.5596709,7.79610625 32.0437303,6.0672473 C31.5273446,4.33881659 32.5098784,2.51889034 34.2395172,2.00251073 C38.6869395,0.673646915 43.3168597,0 48.0000299,0 C60.8197302,0 72.8767441,4.99426365 81.9419928,14.0592682 C83.2175462,15.3348729 83.2175462,17.4022322 81.9419928,18.6782452 C81.3211947,19.2990682 80.4910292,19.6357169 79.6300169,19.6357169 C78.7690046,19.6357169 77.938839,19.2990682 77.318041,18.6782452 C69.4851072,10.8455817 59.0761959,6.53392034 48.0000299,6.53392034 Z M1.86375361,61.2874813 C0.627035824,56.9855755 -2.27373675e-13,52.514874 -2.27373675e-13,47.9999253 C-2.27373675e-13,34.8720751 5.20205828,22.6105564 14.6435054,13.4842281 C15.9415204,12.2290756 18.0124627,12.2643556 19.2667793,13.5628503 C20.520554,14.8599529 20.4853364,16.9270166 19.1883331,18.1807824 C11.0288823,26.0675639 6.53730679,36.6543275 6.53730679,47.9999253 C6.53730679,51.9042603 7.07894923,55.767945 8.14676868,59.4832284 C8.64522268,61.2166606 7.64390273,63.0263066 5.90765008,63.5254932 C5.6110649,63.6102927 5.30714156,63.6529197 5.00421768,63.6529197 C3.55760125,63.6529197 2.26899464,62.696845 1.86375361,61.2874813 Z" id="Combined-Shape"></path>
        </g>
    </g>
</svg>
